<?xml version="1.0" encoding="UTF-8"?>
<svg id="_レイヤー_2" data-name="レイヤー 2" xmlns="http://www.w3.org/2000/svg" viewBox="0 0 1409.39 253.17">
  <defs>
    <style>
      .cls-1 {
        fill: #3a7d5c;
      }

      .cls-2 {
        fill: #656565;
      }

      .cls-3 {
        fill: #6a6a6a;
      }
    </style>
  </defs>
  <g id="_レイヤー_1-2" data-name="レイヤー 1">
    <g>
      <path class="cls-1" d="M183.39,170.53c1.63-.05,2.89.71,3.74,2.03-6.58,12.54-14.84,24.46-26.16,33.26l8.68,2.99c4.11,1.42,8.22,2.16,12.51,3l20.47,3.23c8.09,1.27,25.71.96,26.69-7.91.39-3.51-.12-6.98-1.6-10.19l-4.25-9.24-4.58-10.91c-4-11.06-4.24-22.72-1.31-34.09l14.06-54.57,4.96-8.87,10.04-15.77-11.96,74.51-2.28,15.75.66,11.36c.23,3.92,1.06,7.75,2.64,11.37l7.07,16.14c2.19,5.01,3.15,10.35,2.54,15.81-.5,4.48-2.83,8.3-6.09,11.33-7.15,6.66-18.8,9.17-28.54,8.91-7.81-.21-15.34-.86-23.06-1.88-5.82-.76-11.29-1.9-16.9-3.58l-18.17-6.32-7.54-1.78,6.2-14.21c13.58-7.03,24.68-16.73,32.17-30.39Z"/>
      <path class="cls-1" d="M100.12,194.36c-3.23-1.02-5.86-2.66-8.75-4.16l-4.82-2.52c12.63-6.89,24.74-14.03,37.03-21.77-.35,3.55-.31,7.1-1.67,10.28l-3.29,7.64-18.5,10.53Z"/>
      <g>
        <path class="cls-1" d="M243.94,253.17l-64.45-.11L.04,252.88l20.26-12.48c1.54-.95,3.61-1.2,5.35-1.41l15.62-1.9,25.85-1.87c.51-.1.48-.21,0-.23-7.03-1.6-13.99-2.25-21.05-.8-8.73,1.79-17.46,2.13-26.24.57-5.68-1.01-11.74-2.93-15.86-6.86-4.11-3.92-4.65-10.02-1.17-14.58,4.22-5.52,11.29-7.25,18.21-7.19,10.24.09,20.3-.79,30.33-3.23l15.52,7.58-7.94,2.34c-8.56,2.37-17.12,3.86-26.02,4.21l-13.42.54c-2.19.09-4.67,1.19-4.55,2.5.17,1.78,4.37,3.1,7.02,3.59,6.92,1.28,13.78.85,20.73-.38,8.36-1.48,16.75-1.57,25.02.31,13.01,2.96,23.81,2.38,35.42-4.56l10.78-6.45c3.31-5.91,5.68-12.08,7.65-18.59l13.01-42.92c-15.78,2.24-31.41,1.15-45.83-5.46-17.84-8.18-28.11-25.32-26.79-45l.32-4.8c.5.28,1.32,1.13,1.34,1.75.19,5.7.89,11.08,2.8,16.44,2.19,6.13,5.4,11.79,10.24,16.24,7.95,7.32,17.9,12.03,28.58,13.86,20.21,3.47,40.82-.1,58.86-9.72,8.24-4.39,15.73-9.8,22.63-16.09,8-7.3,14.45-15.92,18.86-25.81,2.52-5.64,4.39-13.81,2.93-19.67-.73-2.92-3.23-4.69-6.28-4.37-6.36.65-12.78,8.49-16.05,14.11-7.29,12.51-11.69,27.13-15.19,41.29l-12.61,6.57c-6.39,2.97-12.83,5.31-19.71,6.79l10.75-31.69c3.13-6.4,6.26-12.46,10.09-18.43,9.59-15.37,28.28-31.27,47.19-27.98,7.01,1.22,12.13,6.45,13.31,13.47.92,5.47.22,10.9-1.68,16.18-2.46,6.84-6.01,13-10.33,18.87-10.52,14.29-25.71,25.46-41.74,33.29l-9.99,33.36c-2.21,7.39-4.75,14.39-7.77,21.46-5.98,14.01-13.92,26.91-25.72,37.01l33.48-.83,56.4-.44c5.35-.04,10.27-1.15,15.38-2.39,12.46-3.03,21.73-11.36,26.56-23.25l3.91,1.08-14.56,46.27Z"/>
        <path class="cls-1" d="M0,112.54v-10.2s.27-3.7.27-3.7c.86-11.78,3.7-23.24,8.22-34.19,4.62-11.19,11.14-21.23,19.38-30.07C47.48,13.38,73.98,1.03,102.77.1c2.33-.08,4.28-.16,6.51-.03l5.79.34c13.03,1.04,25.69,3.81,37.88,8.56l16.79,6.53.53,41.05c-1.65.44-3.15.5-4.7.29-4.03-21.79-19.19-38.82-40.4-45.07-14.93-4.4-30.73-4.03-45.56.72-25.51,8.17-45.76,28.35-55.9,52.95-12.4,30.08-10.83,64.53,4.59,93.14,14.86,27.56,43.05,45.51,74.2,48.04,1.48.12,3.1.08,4.29-.91.67-.56.79-2.07.77-2.86-28.46-2.37-53.5-16.62-68.97-40.58-6.91-10.69-11.62-22.61-13.98-35.19-2.23-11.85-2.68-23.96-.86-35.9,4.54-29.84,22.6-56.6,49.91-69.86,12.28-5.96,26.57-8.66,40.19-6.28-9.28,1.04-18.3,3.12-26.96,6.7-16.13,6.66-29.39,18.4-37.67,33.76-16.49,30.58-17.11,67.84-1.88,99.06,3.3,6.77,7.31,12.96,12.49,18.49,9.43,10.1,21.26,17.54,34.45,21.7,6,1.83,11.9,2.89,18.15,3.16l-7.9,16.22c-8.08-.28-15.87-1.38-23.59-3.22-29.75-7.11-54.97-26.8-69.03-53.95-6.52-12.58-10.62-26.3-11.63-40.44L0,112.54Z"/>
      </g>
    </g>
    <g>
      <path class="cls-2" d="M417.1,37.48l-8.03,34.62h-3.13c-.37-9.42-2.69-16.45-6.95-21.08-4.26-4.63-9.81-6.95-16.67-6.95-7.39,0-14.75,3.16-22.09,9.48-7.34,6.32-13.55,15.98-18.63,28.99-4.12,10.55-6.18,20.96-6.18,31.24,0,9.21,2.26,16.24,6.79,21.08,4.52,4.85,10.72,7.27,18.59,7.27,6.37,0,12.18-1.39,17.43-4.18,5.25-2.78,10.55-7.31,15.9-13.57h3.86c-6.64,9.96-13.35,16.95-20.12,20.96-6.77,4.02-15.06,6.02-24.86,6.02-13.12,0-23.68-3.98-31.68-11.93-8.01-7.95-12.01-18.33-12.01-31.12,0-11.99,3.19-23.44,9.56-34.33,6.37-10.9,15.54-19.7,27.51-26.42,11.97-6.72,23.87-10.08,35.7-10.08,4.5,0,10.09.97,16.79,2.89,3.43.96,5.81,1.45,7.15,1.45,2.68,0,5.38-1.45,8.11-4.34h2.97Z"/>
      <path class="cls-2" d="M463.96,74.43c4.23,0,8.2.98,11.93,2.93,3.72,1.96,6.53,4.67,8.43,8.15,1.9,3.48,2.85,7.34,2.85,11.56,0,8.68-2.42,17.35-7.27,26.02-4.85,8.68-11.23,15.52-19.16,20.52-7.92,5.01-15.9,7.51-23.93,7.51-7.28,0-12.92-2.17-16.91-6.51-3.99-4.34-5.98-9.64-5.98-15.9,0-7.44,1.49-14.42,4.46-20.92,2.97-6.51,6.75-12.18,11.33-17.03,4.58-4.84,9.84-8.78,15.78-11.81,5.94-3.02,12.1-4.54,18.47-4.54ZM460.67,78.69c-2.84,0-5.19.83-7.07,2.49-3.75,3.37-7.98,11.26-12.69,23.65-4.71,12.4-7.07,23.57-7.07,33.53,0,2.46.75,4.5,2.25,6.1,1.5,1.61,3.27,2.41,5.3,2.41s3.94-.64,5.54-1.93c2.36-1.93,5.25-6.25,8.67-12.97,3.43-6.72,6.24-14.14,8.43-22.25,2.19-8.11,3.29-15.54,3.29-22.29,0-2.78-.67-4.94-2.01-6.46-1.34-1.53-2.89-2.29-4.66-2.29Z"/>
      <path class="cls-2" d="M540.2,74.43l-9.96,34.45c6.69-10.07,11.7-16.95,15.02-20.64,4.87-5.35,9.08-9,12.61-10.92s6.85-2.89,9.96-2.89c2.78,0,5.17,1.03,7.15,3.09,1.98,2.06,2.97,4.75,2.97,8.07,0,3-.64,6.64-1.93,10.92l-10.28,34.3c-.86,3-1.29,4.95-1.29,5.86,0,.54.2,1.02.6,1.45s.82.64,1.25.64c.53,0,1.1-.21,1.69-.64,1.87-1.55,3.77-3.75,5.7-6.59.48-.75,1.26-1.87,2.33-3.37l3.05,1.85c-7.87,13.23-16.14,19.84-24.82,19.84-3.32,0-5.92-.86-7.79-2.57-1.87-1.71-2.81-3.85-2.81-6.42,0-2.25.64-5.59,1.93-10.04l10.04-34.3c.69-2.25,1.04-3.91,1.04-4.98,0-.59-.24-1.11-.72-1.57-.48-.46-1.04-.68-1.69-.68-2.04,0-4.5,1.39-7.39,4.18-7.39,7.07-14.54,17.59-21.44,31.56l-6.59,23.85h-20.48l15.02-51.56c1.45-5.09,2.17-8.7,2.17-10.84,0-.91-.21-1.67-.64-2.29-.43-.61-1.12-1.1-2.09-1.45-.96-.35-2.78-.52-5.46-.52l.88-3.05,27.07-4.74h4.9Z"/>
      <path class="cls-2" d="M681.57,37.48l-26.1,89.87c-1.66,5.62-2.49,9.02-2.49,10.2,0,.59.21,1.1.64,1.53.43.43.88.64,1.36.64.91,0,1.95-.45,3.13-1.36,1.98-1.5,4.39-4.34,7.23-8.51l2.89,1.53c-7.55,13.17-15.85,19.76-24.9,19.76-3.21,0-5.69-.84-7.43-2.53-1.74-1.69-2.61-3.84-2.61-6.46s.7-6.1,2.09-10.76l2.41-8.19c-6.69,11.83-12.5,19.7-17.43,23.61-3.75,2.89-7.39,4.34-10.92,4.34-4.02,0-7.4-1.63-10.16-4.9-2.76-3.27-4.14-8.03-4.14-14.3,0-7.98,1.77-15.85,5.3-23.61,3.53-7.76,7.62-14.24,12.25-19.44,4.63-5.19,9.05-8.9,13.25-11.12,4.2-2.22,8.34-3.33,12.41-3.33,2.09,0,3.95.43,5.58,1.28,1.63.86,3.49,2.46,5.58,4.82l5.94-20c1.44-4.92,2.17-8.46,2.17-10.6,0-1.29-.48-2.38-1.45-3.29-.96-.91-2.25-1.36-3.85-1.36-.75,0-1.69.08-2.81.24l.8-3.13,26.42-4.9h4.82ZM646.23,88.4c0-3.27-.64-5.65-1.93-7.15-1.29-1.5-2.79-2.25-4.5-2.25s-3.56.88-5.54,2.65c-3.8,3.43-7.78,10.32-11.93,20.68-4.15,10.36-6.23,19.07-6.23,26.14,0,2.57.46,4.47,1.37,5.7.91,1.23,1.93,1.85,3.05,1.85,1.87,0,3.75-.86,5.62-2.57,4.55-4.07,9.04-11.07,13.45-21,4.42-9.93,6.63-17.95,6.63-24.06Z"/>
      <path class="cls-2" d="M720.14,74.43l-16.46,57.1c-.91,3.27-1.36,5.41-1.36,6.43,0,.59.24,1.14.72,1.65.48.51.99.76,1.53.76.91,0,1.82-.4,2.73-1.21,2.41-1.98,5.3-5.57,8.67-10.76l2.73,1.61c-8.09,14.08-16.68,21.12-25.78,21.12-3.48,0-6.25-.98-8.31-2.93-2.06-1.95-3.09-4.43-3.09-7.43,0-1.98.45-4.5,1.36-7.55l11.16-38.39c1.07-3.69,1.61-6.48,1.61-8.35,0-1.18-.51-2.22-1.53-3.13-1.02-.91-2.41-1.36-4.18-1.36-.8,0-1.77.03-2.89.08l1.04-3.21,27.23-4.42h4.82ZM715.16,37.48c3.32,0,6.12,1.15,8.39,3.45,2.28,2.3,3.41,5.09,3.41,8.35s-1.15,6.05-3.45,8.35-5.09,3.45-8.35,3.45-5.97-1.15-8.27-3.45c-2.3-2.3-3.45-5.09-3.45-8.35s1.14-6.05,3.41-8.35c2.27-2.3,5.05-3.45,8.31-3.45Z"/>
      <path class="cls-2" d="M775.17,54.83l-6.43,21.85h10.52l-2.81,9.24h-10.36l-13.41,46.58c-.86,2.89-1.29,5.09-1.29,6.59,0,.7.24,1.3.72,1.81.48.51,1.02.76,1.61.76.91,0,1.85-.37,2.81-1.12,2.46-1.87,5.33-5.14,8.59-9.8l2.81,1.77c-3.69,6.42-7.76,11.14-12.21,14.13-4.44,3-8.81,4.5-13.09,4.5-3.64,0-6.46-.92-8.47-2.77s-3.01-4.19-3.01-7.03c0-3.11.69-7.1,2.09-11.97l12.69-43.45h-10.92l1.61-5.94c6.85-2.52,12.64-5.46,17.35-8.83s10.39-8.81,17.03-16.3h4.18Z"/>
      <path class="cls-2" d="M819.76,74.43l-16.46,57.1c-.91,3.27-1.36,5.41-1.36,6.43,0,.59.24,1.14.72,1.65.48.51.99.76,1.53.76.91,0,1.82-.4,2.73-1.21,2.41-1.98,5.3-5.57,8.67-10.76l2.73,1.61c-8.09,14.08-16.68,21.12-25.78,21.12-3.48,0-6.25-.98-8.31-2.93-2.06-1.95-3.09-4.43-3.09-7.43,0-1.98.45-4.5,1.36-7.55l11.16-38.39c1.07-3.69,1.61-6.48,1.61-8.35,0-1.18-.51-2.22-1.53-3.13-1.02-.91-2.41-1.36-4.18-1.36-.8,0-1.77.03-2.89.08l1.04-3.21,27.23-4.42h4.82ZM814.78,37.48c3.32,0,6.12,1.15,8.39,3.45,2.28,2.3,3.41,5.09,3.41,8.35s-1.15,6.05-3.45,8.35-5.09,3.45-8.35,3.45-5.97-1.15-8.27-3.45c-2.3-2.3-3.45-5.09-3.45-8.35s1.14-6.05,3.41-8.35c2.27-2.3,5.05-3.45,8.31-3.45Z"/>
      <path class="cls-2" d="M881.7,74.43c4.23,0,8.2.98,11.93,2.93,3.72,1.96,6.53,4.67,8.43,8.15,1.9,3.48,2.85,7.34,2.85,11.56,0,8.68-2.42,17.35-7.27,26.02-4.85,8.68-11.23,15.52-19.16,20.52-7.92,5.01-15.9,7.51-23.93,7.51-7.28,0-12.92-2.17-16.91-6.51-3.99-4.34-5.98-9.64-5.98-15.9,0-7.44,1.49-14.42,4.46-20.92,2.97-6.51,6.75-12.18,11.33-17.03,4.58-4.84,9.84-8.78,15.78-11.81,5.94-3.02,12.1-4.54,18.47-4.54ZM878.41,78.69c-2.84,0-5.19.83-7.07,2.49-3.75,3.37-7.98,11.26-12.69,23.65-4.71,12.4-7.07,23.57-7.07,33.53,0,2.46.75,4.5,2.25,6.1,1.5,1.61,3.27,2.41,5.3,2.41s3.94-.64,5.54-1.93c2.36-1.93,5.25-6.25,8.67-12.97,3.43-6.72,6.24-14.14,8.43-22.25,2.19-8.11,3.29-15.54,3.29-22.29,0-2.78-.67-4.94-2.01-6.46-1.34-1.53-2.89-2.29-4.66-2.29Z"/>
      <path class="cls-2" d="M957.94,74.43l-9.96,34.45c6.69-10.07,11.7-16.95,15.02-20.64,4.87-5.35,9.08-9,12.61-10.92s6.85-2.89,9.96-2.89c2.78,0,5.17,1.03,7.15,3.09,1.98,2.06,2.97,4.75,2.97,8.07,0,3-.64,6.64-1.93,10.92l-10.28,34.3c-.86,3-1.29,4.95-1.29,5.86,0,.54.2,1.02.6,1.45s.82.64,1.25.64c.53,0,1.1-.21,1.69-.64,1.87-1.55,3.77-3.75,5.7-6.59.48-.75,1.26-1.87,2.33-3.37l3.05,1.85c-7.87,13.23-16.14,19.84-24.82,19.84-3.32,0-5.92-.86-7.79-2.57-1.87-1.71-2.81-3.85-2.81-6.42,0-2.25.64-5.59,1.93-10.04l10.04-34.3c.69-2.25,1.04-3.91,1.04-4.98,0-.59-.24-1.11-.72-1.57-.48-.46-1.04-.68-1.69-.68-2.04,0-4.5,1.39-7.39,4.18-7.39,7.07-14.54,17.59-21.44,31.56l-6.59,23.85h-20.48l15.02-51.56c1.45-5.09,2.17-8.7,2.17-10.84,0-.91-.21-1.67-.64-2.29-.43-.61-1.12-1.1-2.09-1.45-.96-.35-2.78-.52-5.46-.52l.88-3.05,27.07-4.74h4.9Z"/>
      <path class="cls-2" d="M1136.51,148.88h-86.98l.88-2.97c5.19,0,8.98-1,11.37-3.01s4.59-6.52,6.63-13.53l20.24-69.96c1.12-3.85,1.69-6.88,1.69-9.08s-.8-3.86-2.41-5.14c-1.61-1.29-4.77-2.04-9.48-2.25l.88-2.97h52.29l-.88,2.97c-5.03.11-8.79,1.23-11.28,3.37s-4.7,6.5-6.63,13.09l-18.47,64.01c-2.36,8.14-3.53,13.09-3.53,14.86,0,1.07.6,2.08,1.81,3.01,1.2.94,3.14,1.41,5.82,1.41,8.89,0,17.47-2.03,25.74-6.1,8.27-4.07,15.27-10.15,21-18.23h3.37l-12.05,30.52Z"/>
      <path class="cls-2" d="M1238.2,75.55l-15.58,53.41-1.61,6.5c-.16.8-.24,1.39-.24,1.77,0,.64.23,1.2.68,1.69.45.48.92.72,1.41.72,1.12,0,2.68-.86,4.66-2.57.8-.69,2.73-3.16,5.78-7.39l2.81,1.44c-3.8,6.96-7.86,12.04-12.17,15.22-4.31,3.19-8.95,4.78-13.93,4.78-3.05,0-5.38-.79-6.99-2.37-1.61-1.58-2.41-3.57-2.41-5.98,0-2.09.86-5.97,2.57-11.65l1.93-6.5c-6.21,10.65-12.18,18.2-17.91,22.65-3.32,2.57-6.85,3.86-10.6,3.86-4.93,0-8.49-2.02-10.68-6.06-2.2-4.04-3.29-8.61-3.29-13.69,0-7.55,2.3-16.21,6.91-25.98,4.6-9.77,10.65-17.63,18.15-23.57,6.16-4.93,11.94-7.39,17.35-7.39,3,0,5.41.87,7.23,2.61,1.82,1.74,3.16,4.91,4.02,9.52l2.89-9.88,19.04-1.12ZM1212.5,90.81c0-4.34-.67-7.47-2.01-9.4-.96-1.34-2.28-2.01-3.94-2.01s-3.37.8-5.14,2.41c-3.59,3.32-7.46,10.05-11.61,20.2-4.15,10.15-6.22,18.91-6.22,26.3,0,2.84.47,4.89,1.41,6.14.94,1.26,1.97,1.89,3.09,1.89,2.41,0,4.84-1.39,7.31-4.18,3.53-3.96,6.72-8.81,9.56-14.54,5.03-10.07,7.55-19.01,7.55-26.83Z"/>
      <path class="cls-2" d="M1297.73,37.48l-13.89,48.43c4.23-4.6,7.76-7.67,10.6-9.2,2.84-1.53,5.92-2.29,9.24-2.29,6.42,0,11.23,2.32,14.42,6.95,3.19,4.63,4.78,9.97,4.78,16.02,0,14.46-5.25,27.36-15.74,38.71-9.32,10.01-19.92,15.02-31.81,15.02-8.83,0-18.18-2.6-28.03-7.79l24.58-85.21c1.18-4.02,1.77-6.77,1.77-8.27,0-1.28-.54-2.3-1.61-3.05-1.5-1.07-3.77-1.53-6.83-1.36l.88-3.21,26.83-4.74h4.82ZM1266.89,144.14c2.52,1.61,4.79,2.41,6.83,2.41,2.84,0,5.22-.56,7.15-1.69,3.05-1.82,6.25-5.11,9.6-9.88,3.34-4.77,6.14-10.52,8.39-17.27s3.37-13.47,3.37-20.16c0-3.8-.86-6.69-2.57-8.67-1.72-1.98-3.69-2.97-5.94-2.97-3.75,0-7.02,1.82-9.8,5.46-1.88,2.36-3.91,7.36-6.1,15.02l-10.92,37.75Z"/>
      <path class="cls-2" d="M1386.18,74.43c4.23,0,8.2.98,11.93,2.93,3.72,1.96,6.53,4.67,8.43,8.15,1.9,3.48,2.85,7.34,2.85,11.56,0,8.68-2.42,17.35-7.27,26.02-4.85,8.68-11.23,15.52-19.16,20.52-7.92,5.01-15.9,7.51-23.93,7.51-7.28,0-12.92-2.17-16.91-6.51-3.99-4.34-5.98-9.64-5.98-15.9,0-7.44,1.49-14.42,4.46-20.92,2.97-6.51,6.75-12.18,11.33-17.03,4.58-4.84,9.84-8.78,15.78-11.81,5.94-3.02,12.1-4.54,18.47-4.54ZM1382.88,78.69c-2.84,0-5.19.83-7.07,2.49-3.75,3.37-7.98,11.26-12.69,23.65-4.71,12.4-7.07,23.57-7.07,33.53,0,2.46.75,4.5,2.25,6.1,1.5,1.61,3.27,2.41,5.3,2.41s3.94-.64,5.54-1.93c2.36-1.93,5.25-6.25,8.67-12.97,3.43-6.72,6.24-14.14,8.43-22.25,2.19-8.11,3.29-15.54,3.29-22.29,0-2.78-.67-4.94-2.01-6.46-1.34-1.53-2.89-2.29-4.66-2.29Z"/>
    </g>
    <g>
      <path class="cls-3" d="M370.93,188.46l4.46-5.16,11.11,8.39c1.05.88,1.75,2.1,1.75,2.8,0,1.84-2.19,2.54-3.41,2.89-.09,2.18-.53,8.39-.7,10.23l-1.84,18.89c-.09,1.05-.35,3.59-.44,4.72,2.62,2.36,4.81,4.37,4.81,7.26,0,1.66-.7,3.32-3.15,3.32-.79,0-4.37-.44-5.07-.44-3.32-.35-6.65-.44-9.97-.44-1.92,0-3.67.09-5.86.18l-10.49.7c-8.57.52-10.14.7-14.87,2.19-2.19,1.49-3.41,2.27-4.37,2.27-1.57,0-9.09-4.9-10.93-17.05l2.1-.53c1.4,2.62,3.15,5.77,11.54,5.16l4.55-.35c1.66-.18,8.83-.35,11.02-.44l9.62-.35,4.64-.09c1.49-.09,3.06-.09,4.63-.18,0-.18.18-2.89.26-3.76l.26-3.5c.61-7.08.96-13.55,1.23-19.59l.35-8.92c-3.32.26-18.1,1.05-21.07,1.31-5.51.44-10.93.87-14.43,3.15-1.14.7-1.4.88-2.27.88-.96,0-2.27-.09-5.25-3.94-3.94-4.98-4.9-9.01-5.6-11.89l1.92-.79c1.4,2.27,2.71,4.46,9.44,4.46,1.05,0,2.19,0,3.24-.09l5.77-.35,27.02-.96Z"/>
      <path class="cls-3" d="M413.7,232.01c1.31,1.49,3.5,4.2,6.65,4.2,3.67,0,24.22-8.74,37.6-19.68,4.81-3.85,9.79-9.09,13.55-13.82,2.45-2.89,3.85-5.25,5.95-8.83l1.92.87c-7,18.89-17.31,37.86-50.54,51.16-1.92,3.15-2.19,3.5-3.06,3.5-1.75,0-4.37-2.36-5.07-2.97-6.65-6.12-7.78-10.06-8.83-13.82l1.84-.61ZM423.4,195.98c-3.06-6.3-8.31-9.01-11.45-10.58l.44-1.75c4.11.09,11.1.26,17.93,3.32,6.21,2.71,7.61,7.78,7.61,10.49,0,4.2-2.62,7.26-6.73,7.26-1.4,0-3.59-.09-5.68-4.46l-2.1-4.28Z"/>
      <path class="cls-3" d="M553.44,210.59c-2.62-.18-5.6-.26-8.22-.26-2.27,0-4.11.09-6.47.26-.96,17.31-2.97,25.36-11.63,31.48-7,4.9-15.39,7.35-23.87,8.66l-.53-2.1c13.29-4.81,18.28-12.77,19.24-14.34,2.62-4.46,4.11-10.76,4.37-22.91-11.37.96-15.48,1.57-18.71,4.28-1.05.87-1.49,1.14-2.01,1.14-2.71,0-10.14-7.17-12.42-16l2.01-.7c1.05,2.19,2.36,4.46,7.26,4.46,1.05,0,2.19-.09,3.24-.09l17.58-1.31,12.68-.87c1.92-.18,10.58-.61,12.33-.7,2.27-.18,3.76-.53,5.95-1.84,2.45-1.31,2.71-1.49,3.32-1.49,2.01,0,10.32,5.86,10.32,10.23,0,1.84-1.49,3.06-2.8,3.06-.7,0-1.92-.26-2.19-.35-1.49-.35-3.41-.44-4.02-.44l-5.42-.17ZM537.26,181.91c5.6-.7,5.68-.79,7-1.66,1.05-.79,1.49-.96,2.01-.96,2.89,0,9.18,6.3,9.18,8.31,0,.87-.18,2.45-2.8,2.45-.61,0-3.32-.09-3.85-.09-.96,0-21.77,1.22-24.05,1.4-6.3.44-8.31.88-10.14,1.57-.44.09-1.49.53-1.84.53-1.14,0-5.77-2.97-9.97-12.85l2.1-.79c2.45,3.06,3.76,3.67,8.83,3.67.44,0,7.43-.09,10.84-.44l12.68-1.14ZM552.21,175c7.52,2.89,8.04,3.06,10.41,4.81,2.1,1.49,4.55,3.93,4.55,7.08,0,2.71-1.84,3.94-3.41,3.94-2.27,0-3.32-1.4-4.81-4.46-2.45-5.16-5.77-7.78-7.87-9.53l1.14-1.84ZM557.2,169.84c3.76.18,7.69.35,11.37,2.01,2.97,1.22,5.51,3.76,5.51,7.08,0,.88-.26,3.85-2.71,3.85-1.84,0-2.71-1.05-5.42-4.28-2.97-3.59-6.82-5.86-9.36-7.35l.61-1.31Z"/>
      <path class="cls-3" d="M626.2,191.61c2.97.35,6.91.79,12.77,4.98.87.61,4.2,3.06,4.2,4.9,0,.96-.7,1.31-.87,1.49-.44.17-2.54.52-2.89.61-5.16,3.85-7.17,5.33-15.22,10.58,1.49.7,2.27.96,2.27,1.66,0,.87-.7,1.22-2.53,2.19-.09,2.1-.18,7.26-.09,9.09l.26,20.46c.09,1.05.26,5.6-2.71,5.6-3.15,0-9.09-5.86-9.09-8.22,0-.35.7-1.84.79-2.19.44-1.57.87-8.22.7-19.85v-2.89c-8.83,3.76-17.75,7-27.02,9.27l-.7-2.01c12.07-5.16,24.14-12.94,34.8-22.39,2.62-2.36,7.43-6.65,7.43-9.01,0-1.14-1.05-1.84-2.54-2.89l.44-1.4Z"/>
      <path class="cls-3" d="M673.51,202.81c1.75-.35,5.25-.88,9.88-.88,9.44,0,13.64,3.94,13.64,9.18,0,4.46-3.5,6.91-6.56,6.91-2.45,0-3.41-.96-5.25-4.11-4.37-7.43-9.01-8.48-11.89-9.09l.18-2.01ZM698.87,230.61c3.24-1.22,17.14-8.39,26.93-16.61,8.83-7.43,12.85-13.64,15.57-17.75l2.01.7c-10.58,26.85-26.58,36.9-45.38,46.43-5.42,2.8-5.95,3.15-7,4.55-.96,1.4-1.4,1.75-2.36,1.75-1.92,0-4.63-2.8-6.21-4.63-3.41-4.11-4.98-8.57-6.56-13.9l1.84-.79c2.45,3.32,3.67,4.9,6.82,4.9,2.1,0,3.76-.53,7.26-1.92l7.08-2.71ZM682.16,179.72c2.45-.18,3.67-.26,5.25-.26,7.87,0,18.54,1.14,18.54,10.32,0,5.25-4.37,6.91-6.47,6.91-3.32,0-4.46-2.1-6.82-6.21-3.41-5.86-7.61-7.43-10.93-8.66l.44-2.1Z"/>
      <path class="cls-3" d="M772.06,199.74c1.4,1.57,3.32,3.85,8.22,3.85,1.84,0,9.97-.53,11.54-.61,5.51-.26,8.83-.26,13.64-.35l3.59-4.72,9.44,6.73c.18.09,1.66,1.14,1.66,2.1,0,1.22-1.57,2.1-2.97,2.89-.18,1.75-.44,5.07-.52,6.73l-1.05,10.84-.96,12.94c1.84,1.92,2.62,3.58,2.62,4.81,0,1.84-1.49,2.53-4.55,2.53-.96,0-5.07-.18-5.95-.18-1.14,0-5.42.18-8.13.26l-8.31.35c-4.55.18-7.17.7-9.62,1.23-.53.26-2.8,1.75-3.32,1.75-1.4,0-6.38-2.8-9.01-13.9l1.75-.35c2.45,3.59,3.76,4.28,8.13,4.11l19.32-.44,3.5-.17c1.14,0,2.27-.09,3.41-.09,0-.87.09-1.66.18-2.45l.61-9.79c-7.52.26-15.74.61-22.47,1.92-.44.18-2.19,1.23-2.62,1.23-1.31,0-5.42-4.11-7-11.37l1.92-.53c1.14,2.1,1.92,2.8,6.21,2.8,1.4,0,2.8,0,4.02-.09l6.21-.35,10.84-.26c1.05-.09,1.4-.09,3.15-.09.09-1.14.18-3.24.26-4.2l.35-7.43c-7.17-.18-20.55.96-24.4,2.54-.44.18-2.36,1.57-2.89,1.57-.96,0-2.19-1.14-3.32-2.53-3.32-4.02-4.11-7.26-4.9-10.49l1.4-.79Z"/>
      <path class="cls-3" d="M853.12,232.01c1.31,1.49,3.5,4.2,6.65,4.2,3.67,0,24.22-8.74,37.6-19.68,4.81-3.85,9.79-9.09,13.55-13.82,2.45-2.89,3.85-5.25,5.95-8.83l1.92.87c-7,18.89-17.31,37.86-50.54,51.16-1.92,3.15-2.19,3.5-3.06,3.5-1.75,0-4.37-2.36-5.07-2.97-6.65-6.12-7.78-10.06-8.83-13.82l1.84-.61ZM862.83,195.98c-3.06-6.3-8.31-9.01-11.45-10.58l.44-1.75c4.11.09,11.1.26,17.93,3.32,6.21,2.71,7.61,7.78,7.61,10.49,0,4.2-2.62,7.26-6.73,7.26-1.4,0-3.59-.09-5.68-4.46l-2.1-4.28Z"/>
      <path class="cls-3" d="M979.22,213.21c0,5.16-4.29,9.44-9.36,9.44s-9.45-4.28-9.45-9.44,4.29-9.36,9.45-9.36,9.36,4.28,9.36,9.36Z"/>
      <path class="cls-3" d="M1027.15,195.28c1.4,3.5,2.71,4.98,10.06,4.98,8.48,0,28.77-1.05,39.53-2.19l3.76-4.63,10.84,7.87c.96.7,1.4,1.84,1.4,2.27,0,1.31-1.66,1.84-3.94,2.62-4.72,17.75-12.68,27.46-21.86,33.75-9.62,6.47-23.96,10.06-31.66,10.93l-.7-2.1c10.14-2.97,19.67-7.52,28.77-17.93,8.57-9.79,11.28-19.85,12.68-25.1-.7.09-2.19.17-2.89.26l-2.62.26c-2.89.26-10.93.96-13.29,1.31l-8.48,1.05c-3.94.53-9.53,1.22-11.63,2.89-1.57,1.23-1.75,1.4-2.36,1.4-1.05,0-3.85-1.92-6.38-6.21-1.92-3.41-2.54-6.73-3.15-11.02l1.92-.44ZM1070.35,189.16c-2.8.35-19.76,1.23-22.21,1.23-7.52,0-9.36-2.89-12.77-10.93l1.84-.87c1.92,2.53,3.32,3.5,9.36,3.5,2.8,0,18.19-.61,20.37-1.75.35-.18,1.75-1.14,2.1-1.31.26-.18.79-.44,1.57-.44,2.01,0,9.01,4.2,9.01,7.08,0,2.36-2.71,2.71-4.72,2.97l-4.55.52Z"/>
      <path class="cls-3" d="M1140.13,194.32v-8.13c0-2.71,0-7.26-7.17-8.13l.88-2.01c2.01-.09,2.71-.09,3.24-.09,8.31,0,16.88,2.54,16.79,5.95,0,.7-.35,1.05-.53,1.4-.44.35-1.31,1.4-1.57,1.75l-.7,8.66,2.89-.18c11.11-.52,12.51-.61,14.25-1.22.52-.18,2.89-1.31,3.5-1.31,1.57,0,3.67,1.49,7.61,4.55,2.71,2.01,3.59,3.15,3.59,4.46,0,2.71-2.89,2.71-3.76,2.71s-1.49-.09-1.84-.09l-4.55-.79c-2.01-.35-11.98-.44-15.13-.44-2.89,0-4.72,0-6.82.09-.09,2.54-.09,4.55-.09,6.65,0,1.4.18,18.71.61,25.97.09.88.53,5.07.53,5.86,0,5.77-8.74,11.1-10.84,11.1-1.75,0-2.45-1.31-2.8-3.32-.61-3.85-.88-4.37-4.2-7.61l-4.11-4.2c-.61-.52-1.66-1.49-2.45-2.27l1.14-1.75,2.97,1.22c4.64,1.84,5.25,2.1,8.57,3.24v-6.21l.09-9.27v-10.49l-.09-8.22-9.18.87c-6.65.61-7.35.87-9.01,1.84-1.57.88-2.19,1.22-3.15,1.22-2.71,0-7.34-5.16-10.32-14.69l2.1-1.14c1.66,3.76,3.41,5.16,10.67,5.16,2.62,0,4.11-.09,14.95-.87l3.93-.26ZM1126.84,209.1c.61,3.06,1.05,5.51,1.05,9.79,0,11.72-5.33,19.85-12.07,19.85-3.76,0-6.73-2.53-6.73-6.38,0-2.36,1.22-4.9,3.06-5.86,5.42-2.8,7.61-3.93,10.06-8.83,1.75-3.41,1.92-5.51,2.01-8.57h2.62ZM1158.49,208.75c4.11,1.57,6.73,2.62,14.52,8.22,7.08,5.07,7.69,11.72,7.69,13.82,0,4.37-3.06,8.48-6.65,8.48-3.76,0-4.98-3.32-5.77-8.04-.44-2.45-1.4-7.26-4.55-12.77-2.19-3.94-3.85-5.51-6.56-7.78l1.31-1.92ZM1158.49,174.73c3.15.79,15.04,3.85,15.04,10.93,0,2.45-1.66,3.67-3.24,3.67-1.92,0-3.24-2.01-3.32-2.27l-1.57-2.36c-3.15-4.98-5.86-7.08-7.52-8.39l.61-1.57ZM1166.19,171.24c15.48,1.22,16.79,6.73,16.79,8.92,0,2.54-1.84,3.59-3.24,3.59-2.1,0-3.06-1.22-4.9-3.76-2.54-3.32-5.6-5.16-9.09-7.17l.44-1.57Z"/>
    </g>
  </g>
</svg>