<?xml version="1.0" encoding="UTF-8"?>
<svg id="_レイヤー_2" data-name="レイヤー 2" xmlns="http://www.w3.org/2000/svg" viewBox="0 0 258.5 253.17">
  <defs>
    <style>
      .cls-1 {
        fill: #3a7d5c;
      }
    </style>
  </defs>
  <g id="_レイヤー_1-2" data-name="レイヤー 1">
    <g>
      <path class="cls-1" d="M183.39,170.53c1.63-.05,2.89.71,3.74,2.03-6.58,12.54-14.84,24.46-26.16,33.26l8.68,2.99c4.11,1.42,8.22,2.16,12.51,3l20.47,3.23c8.09,1.27,25.71.96,26.69-7.91.39-3.51-.12-6.98-1.6-10.19l-4.25-9.24-4.58-10.91c-4-11.06-4.24-22.72-1.31-34.09l14.06-54.57,4.96-8.87,10.04-15.77-11.96,74.51-2.28,15.75.66,11.36c.23,3.92,1.06,7.75,2.64,11.37l7.07,16.14c2.19,5.01,3.15,10.35,2.54,15.81-.5,4.48-2.83,8.3-6.09,11.33-7.15,6.66-18.8,9.17-28.54,8.91-7.81-.21-15.34-.86-23.06-1.88-5.82-.76-11.29-1.9-16.9-3.58l-18.17-6.32-7.54-1.78,6.2-14.21c13.58-7.03,24.68-16.73,32.17-30.39Z"/>
      <path class="cls-1" d="M100.12,194.36c-3.23-1.02-5.86-2.66-8.75-4.16l-4.82-2.52c12.63-6.89,24.74-14.03,37.03-21.77-.35,3.55-.31,7.1-1.67,10.28l-3.29,7.64-18.5,10.53Z"/>
      <g>
        <path class="cls-1" d="M243.94,253.17l-64.45-.11L.04,252.88l20.26-12.48c1.54-.95,3.61-1.2,5.35-1.41l15.62-1.9,25.85-1.87c.51-.1.48-.21,0-.23-7.03-1.6-13.99-2.25-21.05-.8-8.73,1.79-17.46,2.13-26.24.57-5.68-1.01-11.74-2.93-15.86-6.86-4.11-3.92-4.65-10.02-1.17-14.58,4.22-5.52,11.29-7.25,18.21-7.19,10.24.09,20.3-.79,30.33-3.23l15.52,7.58-7.94,2.34c-8.56,2.37-17.12,3.86-26.02,4.21l-13.42.54c-2.19.09-4.67,1.19-4.55,2.5.17,1.78,4.37,3.1,7.02,3.59,6.92,1.28,13.78.85,20.73-.38,8.36-1.48,16.75-1.57,25.02.31,13.01,2.96,23.81,2.38,35.42-4.56l10.78-6.45c3.31-5.91,5.68-12.08,7.65-18.59l13.01-42.92c-15.78,2.24-31.41,1.15-45.83-5.46-17.84-8.18-28.11-25.32-26.79-45l.32-4.8c.5.28,1.32,1.13,1.34,1.75.19,5.7.89,11.08,2.8,16.44,2.19,6.13,5.4,11.79,10.24,16.24,7.95,7.32,17.9,12.03,28.58,13.86,20.21,3.47,40.82-.1,58.86-9.72,8.24-4.39,15.73-9.8,22.63-16.09,8-7.3,14.45-15.92,18.86-25.81,2.52-5.64,4.39-13.81,2.93-19.67-.73-2.92-3.23-4.69-6.28-4.37-6.36.65-12.78,8.49-16.05,14.11-7.29,12.51-11.69,27.13-15.19,41.29l-12.61,6.57c-6.39,2.97-12.83,5.31-19.71,6.79l10.75-31.69c3.13-6.4,6.26-12.46,10.09-18.43,9.59-15.37,28.28-31.27,47.19-27.98,7.01,1.22,12.13,6.45,13.31,13.47.92,5.47.22,10.9-1.68,16.18-2.46,6.84-6.01,13-10.33,18.87-10.52,14.29-25.71,25.46-41.74,33.29l-9.99,33.36c-2.21,7.39-4.75,14.39-7.77,21.46-5.98,14.01-13.92,26.91-25.72,37.01l33.48-.83,56.4-.44c5.35-.04,10.27-1.15,15.38-2.39,12.46-3.03,21.73-11.36,26.56-23.25l3.91,1.08-14.56,46.27Z"/>
        <path class="cls-1" d="M0,112.54v-10.2s.27-3.7.27-3.7c.86-11.78,3.7-23.24,8.22-34.19s11.14-21.23,19.38-30.07C47.48,13.38,73.98,1.03,102.77.1c2.33-.08,4.28-.16,6.51-.03l5.79.34c13.03,1.04,25.69,3.81,37.88,8.56l16.79,6.53.53,41.05c-1.65.44-3.15.5-4.7.29-4.03-21.79-19.19-38.82-40.4-45.07-14.93-4.4-30.73-4.03-45.56.72-25.51,8.17-45.76,28.35-55.9,52.95-12.4,30.08-10.83,64.53,4.59,93.14,14.86,27.56,43.05,45.51,74.2,48.04,1.48.12,3.1.08,4.29-.91.67-.56.79-2.07.77-2.86-28.46-2.37-53.5-16.62-68.97-40.58-6.91-10.69-11.62-22.61-13.98-35.19-2.23-11.85-2.68-23.96-.86-35.9,4.54-29.84,22.6-56.6,49.91-69.86,12.28-5.96,26.57-8.66,40.19-6.28-9.28,1.04-18.3,3.12-26.96,6.7-16.13,6.66-29.39,18.4-37.67,33.76-16.49,30.58-17.11,67.84-1.88,99.06,3.3,6.77,7.31,12.96,12.49,18.49,9.43,10.1,21.26,17.54,34.45,21.7,6,1.83,11.9,2.89,18.15,3.16l-7.9,16.22c-8.08-.28-15.87-1.38-23.59-3.22-29.75-7.11-54.97-26.8-69.03-53.95-6.52-12.58-10.62-26.3-11.63-40.44L0,112.54Z"/>
      </g>
    </g>
  </g>
</svg>