<?xml version="1.0" encoding="UTF-8"?>
<svg id="_レイヤー_2" data-name="レイヤー 2" xmlns="http://www.w3.org/2000/svg" viewBox="0 0 1050.52 253.17">
  <defs>
    <style>
      .cls-1 {
        fill: #3a7d5c;
      }

      .cls-2 {
        fill: #656565;
      }

      .cls-3 {
        fill: #6a6a6a;
      }
    </style>
  </defs>
  <g id="_レイヤー_1-2" data-name="レイヤー 1">
    <g>
      <path class="cls-1" d="M183.39,170.53c1.63-.05,2.89.71,3.74,2.03-6.58,12.54-14.84,24.46-26.16,33.26l8.68,2.99c4.11,1.42,8.22,2.16,12.51,3l20.47,3.23c8.09,1.27,25.71.96,26.69-7.91.39-3.51-.12-6.98-1.6-10.19l-4.25-9.24-4.58-10.91c-4-11.06-4.24-22.72-1.31-34.09l14.06-54.57,4.96-8.87,10.04-15.77-11.96,74.51-2.28,15.75.66,11.36c.23,3.92,1.06,7.75,2.64,11.37l7.07,16.14c2.19,5.01,3.15,10.35,2.54,15.81-.5,4.48-2.83,8.3-6.09,11.33-7.15,6.66-18.8,9.17-28.54,8.91-7.81-.21-15.34-.86-23.06-1.88-5.82-.76-11.29-1.9-16.9-3.58l-18.17-6.32-7.54-1.78,6.2-14.21c13.58-7.03,24.68-16.73,32.17-30.39Z"/>
      <path class="cls-1" d="M100.12,194.36c-3.23-1.02-5.86-2.66-8.75-4.16l-4.82-2.52c12.63-6.89,24.74-14.03,37.03-21.77-.35,3.55-.31,7.1-1.67,10.28l-3.29,7.64-18.5,10.53Z"/>
      <g>
        <path class="cls-1" d="M243.94,253.17l-64.45-.11L.04,252.88l20.26-12.48c1.54-.95,3.61-1.2,5.35-1.41l15.62-1.9,25.85-1.87c.51-.1.48-.21,0-.23-7.03-1.6-13.99-2.25-21.05-.8-8.73,1.79-17.46,2.13-26.24.57-5.68-1.01-11.74-2.93-15.86-6.86-4.11-3.92-4.65-10.02-1.17-14.58,4.22-5.52,11.29-7.25,18.21-7.19,10.24.09,20.3-.79,30.33-3.23l15.52,7.58-7.94,2.34c-8.56,2.37-17.12,3.86-26.02,4.21l-13.42.54c-2.19.09-4.67,1.19-4.55,2.5.17,1.78,4.37,3.1,7.02,3.59,6.92,1.28,13.78.85,20.73-.38,8.36-1.48,16.75-1.57,25.02.31,13.01,2.96,23.81,2.38,35.42-4.56l10.78-6.45c3.31-5.91,5.68-12.08,7.65-18.59l13.01-42.92c-15.78,2.24-31.41,1.15-45.83-5.46-17.84-8.18-28.11-25.32-26.79-45l.32-4.8c.5.28,1.32,1.13,1.34,1.75.19,5.7.89,11.08,2.8,16.44,2.19,6.13,5.4,11.79,10.24,16.24,7.95,7.32,17.9,12.03,28.58,13.86,20.21,3.47,40.82-.1,58.86-9.72,8.24-4.39,15.73-9.8,22.63-16.09,8-7.3,14.45-15.92,18.86-25.81,2.52-5.64,4.39-13.81,2.93-19.67-.73-2.92-3.23-4.69-6.28-4.37-6.36.65-12.78,8.49-16.05,14.11-7.29,12.51-11.69,27.13-15.19,41.29l-12.61,6.57c-6.39,2.97-12.83,5.31-19.71,6.79l10.75-31.69c3.13-6.4,6.26-12.46,10.09-18.43,9.59-15.37,28.28-31.27,47.19-27.98,7.01,1.22,12.13,6.45,13.31,13.47.92,5.47.22,10.9-1.68,16.18-2.46,6.84-6.01,13-10.33,18.87-10.52,14.29-25.71,25.46-41.74,33.29l-9.99,33.36c-2.21,7.39-4.75,14.39-7.77,21.46-5.98,14.01-13.92,26.91-25.72,37.01l33.48-.83,56.4-.44c5.35-.04,10.27-1.15,15.38-2.39,12.46-3.03,21.73-11.36,26.56-23.25l3.91,1.08-14.56,46.27Z"/>
        <path class="cls-1" d="M0,112.54v-10.2s.27-3.7.27-3.7c.86-11.78,3.7-23.24,8.22-34.19,4.62-11.19,11.14-21.23,19.38-30.07C47.48,13.38,73.98,1.03,102.77.1c2.33-.08,4.28-.16,6.51-.03l5.79.34c13.03,1.04,25.69,3.81,37.88,8.56l16.79,6.53.53,41.05c-1.65.44-3.15.5-4.7.29-4.03-21.79-19.19-38.82-40.4-45.07-14.93-4.4-30.73-4.03-45.56.72-25.51,8.17-45.76,28.35-55.9,52.95-12.4,30.08-10.83,64.53,4.59,93.14,14.86,27.56,43.05,45.51,74.2,48.04,1.48.12,3.1.08,4.29-.91.67-.56.79-2.07.77-2.86-28.46-2.37-53.5-16.62-68.97-40.58-6.91-10.69-11.62-22.61-13.98-35.19-2.23-11.85-2.68-23.96-.86-35.9,4.54-29.84,22.6-56.6,49.91-69.86,12.28-5.96,26.57-8.66,40.19-6.28-9.28,1.04-18.3,3.12-26.96,6.7-16.13,6.66-29.39,18.4-37.67,33.76-16.49,30.58-17.11,67.84-1.88,99.06,3.3,6.77,7.31,12.96,12.49,18.49,9.43,10.1,21.26,17.54,34.45,21.7,6,1.83,11.9,2.89,18.15,3.16l-7.9,16.22c-8.08-.28-15.87-1.38-23.59-3.22-29.75-7.11-54.97-26.8-69.03-53.95-6.52-12.58-10.62-26.3-11.63-40.44L0,112.54Z"/>
      </g>
    </g>
    <g>
      <path class="cls-2" d="M369.69,63.99l-5.51,23.75h-2.15c-.26-6.47-1.85-11.29-4.77-14.46s-6.73-4.77-11.43-4.77c-5.07,0-10.12,2.17-15.15,6.5-5.03,4.33-9.29,10.97-12.78,19.89-2.83,7.24-4.24,14.38-4.24,21.44,0,6.32,1.55,11.14,4.66,14.46,3.1,3.33,7.36,4.99,12.76,4.99,4.37,0,8.36-.96,11.96-2.87s7.24-5.01,10.91-9.31h2.65c-4.56,6.83-9.16,11.63-13.8,14.38-4.65,2.76-10.33,4.13-17.05,4.13-9,0-16.25-2.73-21.74-8.18-5.49-5.46-8.24-12.57-8.24-21.35,0-8.23,2.19-16.08,6.56-23.56,4.37-7.48,10.66-13.52,18.87-18.13,8.21-4.61,16.38-6.92,24.5-6.92,3.09,0,6.92.66,11.52,1.98,2.35.66,3.99.99,4.91.99,1.84,0,3.69-.99,5.57-2.98h2.04Z"/>
      <path class="cls-2" d="M401.85,89.34c2.9,0,5.63.67,8.18,2.01,2.55,1.34,4.48,3.21,5.79,5.59,1.3,2.39,1.96,5.03,1.96,7.93,0,5.95-1.66,11.9-4.99,17.85-3.33,5.95-7.71,10.65-13.14,14.08-5.44,3.44-10.91,5.15-16.42,5.15-5,0-8.86-1.49-11.6-4.46-2.74-2.98-4.11-6.61-4.11-10.91,0-5.11,1.02-9.89,3.06-14.35,2.04-4.46,4.63-8.36,7.77-11.68,3.14-3.32,6.75-6.02,10.83-8.1,4.08-2.08,8.3-3.11,12.67-3.11ZM399.59,92.26c-1.95,0-3.56.57-4.85,1.71-2.57,2.31-5.47,7.72-8.71,16.23s-4.85,16.17-4.85,23.01c0,1.69.51,3.09,1.54,4.19,1.03,1.1,2.24,1.65,3.64,1.65s2.7-.44,3.8-1.32c1.62-1.32,3.6-4.29,5.95-8.9,2.35-4.61,4.28-9.7,5.79-15.26,1.51-5.57,2.26-10.66,2.26-15.29,0-1.91-.46-3.39-1.38-4.44-.92-1.05-1.98-1.57-3.2-1.57Z"/>
      <path class="cls-2" d="M454.15,89.34l-6.83,23.64c4.59-6.91,8.03-11.63,10.31-14.16,3.34-3.67,6.23-6.17,8.65-7.49s4.7-1.98,6.83-1.98c1.91,0,3.54.71,4.9,2.12,1.36,1.42,2.04,3.26,2.04,5.54,0,2.06-.44,4.56-1.32,7.49l-7.05,23.53c-.59,2.06-.88,3.4-.88,4.02,0,.37.14.7.41.99s.56.44.85.44c.37,0,.75-.15,1.16-.44,1.29-1.07,2.59-2.57,3.91-4.52.33-.51.86-1.29,1.6-2.31l2.09,1.27c-5.4,9.07-11.08,13.61-17.03,13.61-2.28,0-4.06-.59-5.35-1.76-1.29-1.17-1.93-2.64-1.93-4.41,0-1.54.44-3.84,1.32-6.89l6.89-23.53c.48-1.54.72-2.68.72-3.42,0-.4-.17-.76-.5-1.07-.33-.31-.72-.47-1.16-.47-1.4,0-3.09.96-5.07,2.87-5.07,4.85-9.97,12.07-14.71,21.66l-4.52,16.37h-14.05l10.3-35.38c.99-3.49,1.49-5.97,1.49-7.44,0-.62-.15-1.15-.44-1.57-.29-.42-.77-.75-1.43-.99-.66-.24-1.91-.36-3.75-.36l.61-2.09,18.57-3.25h3.36Z"/>
      <path class="cls-2" d="M551.15,63.99l-17.91,61.66c-1.14,3.86-1.71,6.19-1.71,7,0,.4.15.75.44,1.05.29.29.61.44.94.44.62,0,1.34-.31,2.15-.94,1.36-1.03,3.01-2.98,4.96-5.84l1.98,1.05c-5.18,9.04-10.88,13.56-17.08,13.56-2.2,0-3.9-.58-5.1-1.74-1.19-1.16-1.79-2.63-1.79-4.44s.48-4.19,1.43-7.38l1.65-5.62c-4.59,8.12-8.58,13.52-11.96,16.2-2.57,1.98-5.07,2.98-7.49,2.98-2.76,0-5.08-1.12-6.97-3.36-1.89-2.24-2.84-5.51-2.84-9.81,0-5.47,1.21-10.87,3.64-16.2,2.42-5.33,5.23-9.77,8.4-13.33s6.21-6.11,9.09-7.63c2.88-1.52,5.72-2.29,8.51-2.29,1.43,0,2.71.29,3.83.88,1.12.59,2.4,1.69,3.83,3.31l4.08-13.72c.99-3.38,1.49-5.8,1.49-7.27,0-.88-.33-1.63-.99-2.26-.66-.62-1.54-.94-2.64-.94-.51,0-1.16.05-1.93.17l.55-2.15,18.13-3.36h3.31ZM526.9,98.93c0-2.24-.44-3.88-1.32-4.9-.88-1.03-1.91-1.54-3.09-1.54s-2.44.61-3.8,1.82c-2.61,2.35-5.34,7.08-8.18,14.19-2.85,7.11-4.27,13.09-4.27,17.94,0,1.76.31,3.07.94,3.91.62.84,1.32,1.27,2.09,1.27,1.29,0,2.57-.59,3.86-1.76,3.12-2.79,6.2-7.6,9.23-14.41,3.03-6.81,4.55-12.32,4.55-16.5Z"/>
      <path class="cls-2" d="M577.61,89.34l-11.3,39.18c-.62,2.24-.94,3.71-.94,4.41,0,.4.17.78.5,1.13.33.35.68.52,1.05.52.62,0,1.25-.28,1.87-.83,1.65-1.36,3.64-3.82,5.95-7.38l1.87,1.1c-5.55,9.66-11.44,14.49-17.69,14.49-2.39,0-4.29-.67-5.7-2.01-1.42-1.34-2.12-3.04-2.12-5.1,0-1.36.31-3.09.94-5.18l7.66-26.34c.74-2.53,1.1-4.44,1.1-5.73,0-.81-.35-1.52-1.05-2.15-.7-.62-1.65-.94-2.87-.94-.55,0-1.21.02-1.98.05l.72-2.2,18.68-3.03h3.31ZM574.2,63.99c2.28,0,4.2.79,5.76,2.37,1.56,1.58,2.34,3.49,2.34,5.73s-.79,4.15-2.37,5.73-3.49,2.37-5.73,2.37-4.1-.79-5.68-2.37c-1.58-1.58-2.37-3.49-2.37-5.73s.78-4.15,2.34-5.73c1.56-1.58,3.46-2.37,5.7-2.37Z"/>
      <path class="cls-2" d="M615.37,75.89l-4.41,14.99h7.22l-1.93,6.34h-7.11l-9.2,31.96c-.59,1.98-.88,3.49-.88,4.52,0,.48.17.89.5,1.24.33.35.7.52,1.1.52.62,0,1.27-.26,1.93-.77,1.69-1.29,3.66-3.53,5.9-6.72l1.93,1.21c-2.54,4.41-5.33,7.64-8.38,9.7-3.05,2.06-6.04,3.09-8.98,3.09-2.5,0-4.44-.63-5.81-1.9s-2.07-2.87-2.07-4.82c0-2.13.48-4.87,1.43-8.21l8.71-29.81h-7.5l1.1-4.08c4.7-1.73,8.67-3.75,11.9-6.06s7.13-6.04,11.68-11.19h2.87Z"/>
      <path class="cls-2" d="M645.97,89.34l-11.3,39.18c-.62,2.24-.94,3.71-.94,4.41,0,.4.17.78.5,1.13.33.35.68.52,1.05.52.62,0,1.25-.28,1.87-.83,1.65-1.36,3.64-3.82,5.95-7.38l1.87,1.1c-5.55,9.66-11.44,14.49-17.69,14.49-2.39,0-4.29-.67-5.7-2.01-1.42-1.34-2.12-3.04-2.12-5.1,0-1.36.31-3.09.94-5.18l7.66-26.34c.74-2.53,1.1-4.44,1.1-5.73,0-.81-.35-1.52-1.05-2.15-.7-.62-1.65-.94-2.87-.94-.55,0-1.21.02-1.98.05l.72-2.2,18.68-3.03h3.31ZM642.55,63.99c2.28,0,4.2.79,5.76,2.37,1.56,1.58,2.34,3.49,2.34,5.73s-.79,4.15-2.37,5.73-3.49,2.37-5.73,2.37-4.1-.79-5.68-2.37c-1.58-1.58-2.37-3.49-2.37-5.73s.78-4.15,2.34-5.73c1.56-1.58,3.46-2.37,5.7-2.37Z"/>
      <path class="cls-2" d="M688.47,89.34c2.9,0,5.63.67,8.18,2.01,2.55,1.34,4.48,3.21,5.79,5.59,1.3,2.39,1.96,5.03,1.96,7.93,0,5.95-1.66,11.9-4.99,17.85-3.33,5.95-7.71,10.65-13.14,14.08-5.44,3.44-10.91,5.15-16.42,5.15-5,0-8.86-1.49-11.6-4.46-2.74-2.98-4.11-6.61-4.11-10.91,0-5.11,1.02-9.89,3.06-14.35,2.04-4.46,4.63-8.36,7.77-11.68,3.14-3.32,6.75-6.02,10.83-8.1,4.08-2.08,8.3-3.11,12.67-3.11ZM686.21,92.26c-1.95,0-3.56.57-4.85,1.71-2.57,2.31-5.47,7.72-8.71,16.23s-4.85,16.17-4.85,23.01c0,1.69.51,3.09,1.54,4.19,1.03,1.1,2.24,1.65,3.64,1.65s2.7-.44,3.8-1.32c1.62-1.32,3.6-4.29,5.95-8.9,2.35-4.61,4.28-9.7,5.79-15.26,1.51-5.57,2.26-10.66,2.26-15.29,0-1.91-.46-3.39-1.38-4.44-.92-1.05-1.98-1.57-3.2-1.57Z"/>
      <path class="cls-2" d="M740.77,89.34l-6.83,23.64c4.59-6.91,8.03-11.63,10.31-14.16,3.34-3.67,6.23-6.17,8.65-7.49s4.7-1.98,6.83-1.98c1.91,0,3.54.71,4.9,2.12,1.36,1.42,2.04,3.26,2.04,5.54,0,2.06-.44,4.56-1.32,7.49l-7.05,23.53c-.59,2.06-.88,3.4-.88,4.02,0,.37.14.7.41.99s.56.44.85.44c.37,0,.75-.15,1.16-.44,1.29-1.07,2.59-2.57,3.91-4.52.33-.51.86-1.29,1.6-2.31l2.09,1.27c-5.4,9.07-11.08,13.61-17.03,13.61-2.28,0-4.06-.59-5.35-1.76-1.29-1.17-1.93-2.64-1.93-4.41,0-1.54.44-3.84,1.32-6.89l6.89-23.53c.48-1.54.72-2.68.72-3.42,0-.4-.17-.76-.5-1.07-.33-.31-.72-.47-1.16-.47-1.4,0-3.09.96-5.07,2.87-5.07,4.85-9.97,12.07-14.71,21.66l-4.52,16.37h-14.05l10.3-35.38c.99-3.49,1.49-5.97,1.49-7.44,0-.62-.15-1.15-.44-1.57-.29-.42-.77-.75-1.43-.99-.66-.24-1.91-.36-3.75-.36l.61-2.09,18.57-3.25h3.36Z"/>
      <path class="cls-2" d="M863.29,140.42h-59.68l.61-2.04c3.56,0,6.16-.69,7.8-2.07s3.15-4.47,4.55-9.29l13.89-48c.77-2.64,1.16-4.72,1.16-6.23s-.55-2.65-1.65-3.53c-1.1-.88-3.27-1.4-6.5-1.54l.61-2.04h35.87l-.61,2.04c-3.45.07-6.03.84-7.74,2.31s-3.22,4.46-4.55,8.98l-12.67,43.92c-1.62,5.58-2.42,8.98-2.42,10.19,0,.74.41,1.42,1.24,2.07.83.64,2.16.96,4,.96,6.1,0,11.99-1.4,17.66-4.19,5.68-2.79,10.48-6.96,14.41-12.51h2.31l-8.27,20.94Z"/>
      <path class="cls-2" d="M933.07,90.11l-10.69,36.65-1.1,4.46c-.11.55-.17.96-.17,1.21,0,.44.16.83.47,1.16.31.33.63.5.96.5.77,0,1.84-.59,3.2-1.76.55-.48,1.87-2.17,3.97-5.07l1.93.99c-2.61,4.78-5.39,8.26-8.35,10.44-2.96,2.19-6.14,3.28-9.56,3.28-2.09,0-3.69-.54-4.79-1.63-1.1-1.08-1.65-2.45-1.65-4.11,0-1.43.59-4.1,1.76-7.99l1.32-4.46c-4.26,7.31-8.36,12.49-12.29,15.54-2.28,1.76-4.7,2.65-7.27,2.65-3.38,0-5.82-1.39-7.33-4.16-1.51-2.77-2.26-5.91-2.26-9.4,0-5.18,1.58-11.12,4.74-17.83,3.16-6.7,7.31-12.1,12.45-16.17,4.22-3.38,8.19-5.07,11.9-5.07,2.06,0,3.71.6,4.96,1.79,1.25,1.19,2.17,3.37,2.76,6.53l1.98-6.78,13.06-.77ZM915.44,100.58c0-2.98-.46-5.12-1.38-6.45-.66-.92-1.56-1.38-2.7-1.38s-2.31.55-3.53,1.65c-2.46,2.28-5.12,6.9-7.96,13.86-2.85,6.96-4.27,12.98-4.27,18.05,0,1.95.32,3.35.96,4.22.64.86,1.35,1.29,2.12,1.29,1.65,0,3.32-.96,5.01-2.87,2.42-2.72,4.61-6.04,6.56-9.97,3.45-6.91,5.18-13.04,5.18-18.41Z"/>
      <path class="cls-2" d="M973.91,63.99l-9.53,33.23c2.9-3.16,5.33-5.26,7.27-6.31,1.95-1.05,4.06-1.57,6.34-1.57,4.41,0,7.71,1.59,9.89,4.77,2.19,3.18,3.28,6.84,3.28,10.99,0,9.92-3.6,18.77-10.8,26.56-6.39,6.87-13.67,10.3-21.82,10.3-6.06,0-12.47-1.78-19.23-5.35l16.86-58.47c.81-2.76,1.21-4.65,1.21-5.68,0-.88-.37-1.58-1.1-2.09-1.03-.73-2.59-1.05-4.68-.94l.61-2.2,18.41-3.25h3.31ZM952.75,137.17c1.73,1.1,3.29,1.65,4.68,1.65,1.95,0,3.58-.39,4.9-1.16,2.09-1.25,4.29-3.51,6.59-6.78,2.29-3.27,4.21-7.22,5.76-11.85s2.31-9.24,2.31-13.83c0-2.61-.59-4.59-1.76-5.95-1.18-1.36-2.54-2.04-4.08-2.04-2.57,0-4.81,1.25-6.72,3.75-1.29,1.62-2.68,5.05-4.19,10.3l-7.49,25.9Z"/>
      <path class="cls-2" d="M1034.6,89.34c2.9,0,5.63.67,8.18,2.01,2.55,1.34,4.48,3.21,5.79,5.59,1.3,2.39,1.96,5.03,1.96,7.93,0,5.95-1.66,11.9-4.99,17.85-3.33,5.95-7.71,10.65-13.14,14.08-5.44,3.44-10.91,5.15-16.42,5.15-5,0-8.86-1.49-11.6-4.46-2.74-2.98-4.11-6.61-4.11-10.91,0-5.11,1.02-9.89,3.06-14.35,2.04-4.46,4.63-8.36,7.77-11.68,3.14-3.32,6.75-6.02,10.83-8.1,4.08-2.08,8.3-3.11,12.67-3.11ZM1032.34,92.26c-1.95,0-3.56.57-4.85,1.71-2.57,2.31-5.47,7.72-8.71,16.23s-4.85,16.17-4.85,23.01c0,1.69.51,3.09,1.54,4.19,1.03,1.1,2.24,1.65,3.64,1.65s2.7-.44,3.8-1.32c1.62-1.32,3.6-4.29,5.95-8.9,2.35-4.61,4.28-9.7,5.79-15.26,1.51-5.57,2.26-10.66,2.26-15.29,0-1.91-.46-3.39-1.38-4.44-.92-1.05-1.98-1.57-3.2-1.57Z"/>
    </g>
    <g>
      <path class="cls-3" d="M338.02,174.34l3.06-3.54,7.62,5.76c.72.6,1.2,1.44,1.2,1.92,0,1.26-1.5,1.74-2.34,1.98-.06,1.5-.36,5.76-.48,7.02l-1.26,12.96c-.06.72-.24,2.46-.3,3.24,1.8,1.62,3.3,3,3.3,4.98,0,1.14-.48,2.28-2.16,2.28-.54,0-3-.3-3.48-.3-2.28-.24-4.56-.3-6.84-.3-1.32,0-2.52.06-4.02.12l-7.2.48c-5.88.36-6.96.48-10.2,1.5-1.5,1.02-2.34,1.56-3,1.56-1.08,0-6.24-3.36-7.5-11.7l1.44-.36c.96,1.8,2.16,3.96,7.92,3.54l3.12-.24c1.14-.12,6.06-.24,7.56-.3l6.6-.24,3.18-.06c1.02-.06,2.1-.06,3.18-.12,0-.12.12-1.98.18-2.58l.18-2.4c.42-4.86.66-9.3.84-13.44l.24-6.12c-2.28.18-12.42.72-14.46.9-3.78.3-7.5.6-9.9,2.16-.78.48-.96.6-1.56.6-.66,0-1.56-.06-3.6-2.7-2.7-3.42-3.36-6.18-3.84-8.16l1.32-.54c.96,1.56,1.86,3.06,6.48,3.06.72,0,1.5,0,2.22-.06l3.96-.24,18.54-.66Z"/>
      <path class="cls-3" d="M367.36,204.22c.9,1.02,2.4,2.88,4.56,2.88,2.52,0,16.62-6,25.8-13.5,3.3-2.64,6.72-6.24,9.3-9.48,1.68-1.98,2.64-3.6,4.08-6.06l1.32.6c-4.8,12.96-11.88,25.98-34.68,35.1-1.32,2.16-1.5,2.4-2.1,2.4-1.2,0-3-1.62-3.48-2.04-4.56-4.2-5.34-6.9-6.06-9.48l1.26-.42ZM374.02,179.5c-2.1-4.32-5.7-6.18-7.86-7.26l.3-1.2c2.82.06,7.62.18,12.3,2.28,4.26,1.86,5.22,5.34,5.22,7.2,0,2.88-1.8,4.98-4.62,4.98-.96,0-2.46-.06-3.9-3.06l-1.44-2.94Z"/>
      <path class="cls-3" d="M463.24,189.52c-1.8-.12-3.84-.18-5.64-.18-1.56,0-2.82.06-4.44.18-.66,11.88-2.04,17.4-7.98,21.6-4.8,3.36-10.56,5.04-16.38,5.94l-.36-1.44c9.12-3.3,12.54-8.76,13.2-9.84,1.8-3.06,2.82-7.38,3-15.72-7.8.66-10.62,1.08-12.84,2.94-.72.6-1.02.78-1.38.78-1.86,0-6.96-4.92-8.52-10.98l1.38-.48c.72,1.5,1.62,3.06,4.98,3.06.72,0,1.5-.06,2.22-.06l12.06-.9,8.7-.6c1.32-.12,7.26-.42,8.46-.48,1.56-.12,2.58-.36,4.08-1.26,1.68-.9,1.86-1.02,2.28-1.02,1.38,0,7.08,4.02,7.08,7.02,0,1.26-1.02,2.1-1.92,2.1-.48,0-1.32-.18-1.5-.24-1.02-.24-2.34-.3-2.76-.3l-3.72-.12ZM452.14,169.84c3.84-.48,3.9-.54,4.8-1.14.72-.54,1.02-.66,1.38-.66,1.98,0,6.3,4.32,6.3,5.7,0,.6-.12,1.68-1.92,1.68-.42,0-2.28-.06-2.64-.06-.66,0-14.94.84-16.5.96-4.32.3-5.7.6-6.96,1.08-.3.06-1.02.36-1.26.36-.78,0-3.96-2.04-6.84-8.82l1.44-.54c1.68,2.1,2.58,2.52,6.06,2.52.3,0,5.1-.06,7.44-.3l8.7-.78ZM462.4,165.1c5.16,1.98,5.52,2.1,7.14,3.3,1.44,1.02,3.12,2.7,3.12,4.86,0,1.86-1.26,2.7-2.34,2.7-1.56,0-2.28-.96-3.3-3.06-1.68-3.54-3.96-5.34-5.4-6.54l.78-1.26ZM465.82,161.56c2.58.12,5.28.24,7.8,1.38,2.04.84,3.78,2.58,3.78,4.86,0,.6-.18,2.64-1.86,2.64-1.26,0-1.86-.72-3.72-2.94-2.04-2.46-4.68-4.02-6.42-5.04l.42-.9Z"/>
      <path class="cls-3" d="M513.16,176.5c2.04.24,4.74.54,8.76,3.42.6.42,2.88,2.1,2.88,3.36,0,.66-.48.9-.6,1.02-.3.12-1.74.36-1.98.42-3.54,2.64-4.92,3.66-10.44,7.26,1.02.48,1.56.66,1.56,1.14,0,.6-.48.84-1.74,1.5-.06,1.44-.12,4.98-.06,6.24l.18,14.04c.06.72.18,3.84-1.86,3.84-2.16,0-6.24-4.02-6.24-5.64,0-.24.48-1.26.54-1.5.3-1.08.6-5.64.48-13.62v-1.98c-6.06,2.58-12.18,4.8-18.54,6.36l-.48-1.38c8.28-3.54,16.56-8.88,23.88-15.36,1.8-1.62,5.1-4.56,5.1-6.18,0-.78-.72-1.26-1.74-1.98l.3-.96Z"/>
      <path class="cls-3" d="M545.62,184.18c1.2-.24,3.6-.6,6.78-.6,6.48,0,9.36,2.7,9.36,6.3,0,3.06-2.4,4.74-4.5,4.74-1.68,0-2.34-.66-3.6-2.82-3-5.1-6.18-5.82-8.16-6.24l.12-1.38ZM563.02,203.26c2.22-.84,11.76-5.76,18.48-11.4,6.06-5.1,8.82-9.36,10.68-12.18l1.38.48c-7.26,18.42-18.24,25.32-31.14,31.86-3.72,1.92-4.08,2.16-4.8,3.12-.66.96-.96,1.2-1.62,1.2-1.32,0-3.18-1.92-4.26-3.18-2.34-2.82-3.42-5.88-4.5-9.54l1.26-.54c1.68,2.28,2.52,3.36,4.68,3.36,1.44,0,2.58-.36,4.98-1.32l4.86-1.86ZM551.56,168.34c1.68-.12,2.52-.18,3.6-.18,5.4,0,12.72.78,12.72,7.08,0,3.6-3,4.74-4.44,4.74-2.28,0-3.06-1.44-4.68-4.26-2.34-4.02-5.22-5.1-7.5-5.94l.3-1.44Z"/>
      <path class="cls-3" d="M613.24,182.08c.96,1.08,2.28,2.64,5.64,2.64,1.26,0,6.84-.36,7.92-.42,3.78-.18,6.06-.18,9.36-.24l2.46-3.24,6.48,4.62c.12.06,1.14.78,1.14,1.44,0,.84-1.08,1.44-2.04,1.98-.12,1.2-.3,3.48-.36,4.62l-.72,7.44-.66,8.88c1.26,1.32,1.8,2.46,1.8,3.3,0,1.26-1.02,1.74-3.12,1.74-.66,0-3.48-.12-4.08-.12-.78,0-3.72.12-5.58.18l-5.7.24c-3.12.12-4.92.48-6.6.84-.36.18-1.92,1.2-2.28,1.2-.96,0-4.38-1.92-6.18-9.54l1.2-.24c1.68,2.46,2.58,2.94,5.58,2.82l13.26-.3,2.4-.12c.78,0,1.56-.06,2.34-.06,0-.6.06-1.14.12-1.68l.42-6.72c-5.16.18-10.8.42-15.42,1.32-.3.12-1.5.84-1.8.84-.9,0-3.72-2.82-4.8-7.8l1.32-.36c.78,1.44,1.32,1.92,4.26,1.92.96,0,1.92,0,2.76-.06l4.26-.24,7.44-.18c.72-.06.96-.06,2.16-.06.06-.78.12-2.22.18-2.88l.24-5.1c-4.92-.12-14.1.66-16.74,1.74-.3.12-1.62,1.08-1.98,1.08-.66,0-1.5-.78-2.28-1.74-2.28-2.76-2.82-4.98-3.36-7.2l.96-.54Z"/>
      <path class="cls-3" d="M668.86,204.22c.9,1.02,2.4,2.88,4.56,2.88,2.52,0,16.62-6,25.8-13.5,3.3-2.64,6.72-6.24,9.3-9.48,1.68-1.98,2.64-3.6,4.08-6.06l1.32.6c-4.8,12.96-11.88,25.98-34.68,35.1-1.32,2.16-1.5,2.4-2.1,2.4-1.2,0-3-1.62-3.48-2.04-4.56-4.2-5.34-6.9-6.06-9.48l1.26-.42ZM675.52,179.5c-2.1-4.32-5.7-6.18-7.86-7.26l.3-1.2c2.82.06,7.62.18,12.3,2.28,4.26,1.86,5.22,5.34,5.22,7.2,0,2.88-1.8,4.98-4.62,4.98-.96,0-2.46-.06-3.9-3.06l-1.44-2.94Z"/>
      <path class="cls-3" d="M755.38,191.32c0,3.54-2.94,6.48-6.42,6.48s-6.48-2.94-6.48-6.48,2.94-6.42,6.48-6.42,6.42,2.94,6.42,6.42Z"/>
      <path class="cls-3" d="M788.26,179.02c.96,2.4,1.86,3.42,6.9,3.42,5.82,0,19.74-.72,27.12-1.5l2.58-3.18,7.44,5.4c.66.48.96,1.26.96,1.56,0,.9-1.14,1.26-2.7,1.8-3.24,12.18-8.7,18.84-15,23.16-6.6,4.44-16.44,6.9-21.72,7.5l-.48-1.44c6.96-2.04,13.5-5.16,19.74-12.3,5.88-6.72,7.74-13.62,8.7-17.22-.48.06-1.5.12-1.98.18l-1.8.18c-1.98.18-7.5.66-9.12.9l-5.82.72c-2.7.36-6.54.84-7.98,1.98-1.08.84-1.2.96-1.62.96-.72,0-2.64-1.32-4.38-4.26-1.32-2.34-1.74-4.62-2.16-7.56l1.32-.3ZM817.9,174.82c-1.92.24-13.56.84-15.24.84-5.16,0-6.42-1.98-8.76-7.5l1.26-.6c1.32,1.74,2.28,2.4,6.42,2.4,1.92,0,12.48-.42,13.98-1.2.24-.12,1.2-.78,1.44-.9.18-.12.54-.3,1.08-.3,1.38,0,6.18,2.88,6.18,4.86,0,1.62-1.86,1.86-3.24,2.04l-3.12.36Z"/>
      <path class="cls-3" d="M865.78,178.36v-5.58c0-1.86,0-4.98-4.92-5.58l.6-1.38c1.38-.06,1.86-.06,2.22-.06,5.7,0,11.58,1.74,11.52,4.08,0,.48-.24.72-.36.96-.3.24-.9.96-1.08,1.2l-.48,5.94,1.98-.12c7.62-.36,8.58-.42,9.78-.84.36-.12,1.98-.9,2.4-.9,1.08,0,2.52,1.02,5.22,3.12,1.86,1.38,2.46,2.16,2.46,3.06,0,1.86-1.98,1.86-2.58,1.86s-1.02-.06-1.26-.06l-3.12-.54c-1.38-.24-8.22-.3-10.38-.3-1.98,0-3.24,0-4.68.06-.06,1.74-.06,3.12-.06,4.56,0,.96.12,12.84.42,17.82.06.6.36,3.48.36,4.02,0,3.96-6,7.62-7.44,7.62-1.2,0-1.68-.9-1.92-2.28-.42-2.64-.6-3-2.88-5.22l-2.82-2.88c-.42-.36-1.14-1.02-1.68-1.56l.78-1.2,2.04.84c3.18,1.26,3.6,1.44,5.88,2.22v-4.26l.06-6.36v-7.2l-.06-5.64-6.3.6c-4.56.42-5.04.6-6.18,1.26-1.08.6-1.5.84-2.16.84-1.86,0-5.04-3.54-7.08-10.08l1.44-.78c1.14,2.58,2.34,3.54,7.32,3.54,1.8,0,2.82-.06,10.26-.6l2.7-.18ZM856.66,188.5c.42,2.1.72,3.78.72,6.72,0,8.04-3.66,13.62-8.28,13.62-2.58,0-4.62-1.74-4.62-4.38,0-1.62.84-3.36,2.1-4.02,3.72-1.92,5.22-2.7,6.9-6.06,1.2-2.34,1.32-3.78,1.38-5.88h1.8ZM878.38,188.26c2.82,1.08,4.62,1.8,9.96,5.64,4.86,3.48,5.28,8.04,5.28,9.48,0,3-2.1,5.82-4.56,5.82-2.58,0-3.42-2.28-3.96-5.52-.3-1.68-.96-4.98-3.12-8.76-1.5-2.7-2.64-3.78-4.5-5.34l.9-1.32ZM878.38,164.92c2.16.54,10.32,2.64,10.32,7.5,0,1.68-1.14,2.52-2.22,2.52-1.32,0-2.22-1.38-2.28-1.56l-1.08-1.62c-2.16-3.42-4.02-4.86-5.16-5.76l.42-1.08ZM883.66,162.52c10.62.84,11.52,4.62,11.52,6.12,0,1.74-1.26,2.46-2.22,2.46-1.44,0-2.1-.84-3.36-2.58-1.74-2.28-3.84-3.54-6.24-4.92l.3-1.08Z"/>
    </g>
  </g>
</svg>